<?xml version="1.0" encoding="iso-8859-1"?>
<!-- Generator: Adobe Illustrator 19.0.0, SVG Export Plug-In . SVG Version: 6.00 Build 0)  -->
<svg xmlns="http://www.w3.org/2000/svg" xmlns:xlink="http://www.w3.org/1999/xlink" version="1.1" id="Capa_1" x="0px" y="0px" viewBox="0 0 512 512" style="enable-background:new 0 0 512 512;" xml:space="preserve" width="512px" height="512px">
<g>
	<g>
		<path d="M99.243,199.55c-3.431,2.318-4.334,6.979-2.015,10.411c2.319,3.431,6.979,4.333,10.411,2.015    c8.113-5.481,17.601-8.378,27.439-8.378c27.065,0,49.084,22.019,49.084,49.084s-22.019,49.085-49.084,49.085    c-36.836,0-60.642-39.362-43.444-71.953c1.932-3.662,0.53-8.197-3.132-10.13c-3.662-1.931-8.197-0.531-10.13,3.132    c-22.476,42.597,8.64,93.945,56.706,93.945c35.333,0,64.079-28.745,64.079-64.079C199.156,201.419,141.61,170.929,99.243,199.55z" fill="#f5a623"/>
	</g>
</g>
<g>
	<g>
		<path d="M376.966,203.597c27.066,0,49.085,22.019,49.085,49.085c0,4.141,3.357,7.498,7.497,7.498s7.497-3.357,7.497-7.498    c0-35.333-28.745-64.079-64.08-64.079c-35.333,0-64.079,28.745-64.079,64.079c0,35.334,28.745,64.08,64.079,64.08    c23.36-0.001,44.879-12.722,56.16-33.199c1.998-3.627,0.678-8.186-2.949-10.185c-3.627-1.997-8.186-0.677-10.185,2.949    c-8.645,15.692-25.132,25.439-43.027,25.439c-27.065,0-49.085-22.019-49.085-49.085S349.9,203.597,376.966,203.597z" fill="#f5a623"/>
	</g>
</g>
<g>
	<g>
		<path d="M511.939,164.376c0-10.889-8.859-19.748-19.748-19.748H307.038c-10.889,0-19.747,8.859-19.747,19.748v3.732h-62.536    v-3.732c0-10.889-8.859-19.748-19.747-19.748H19.853c-10.889,0-19.747,8.859-19.747,19.748c0,16.802-1.687,27.587,8.42,37.039    c0.097,0.097,0.197,0.191,0.3,0.283l38.177,34.088c-0.59,3.081-1.023,6.216-1.288,9.399h-17.83c-4.141,0-7.497,3.357-7.497,7.497    c0,63.241,51.449,114.691,114.688,114.691c4.141,0,7.497-3.357,7.497-7.497v-17.831c44.137-3.671,82.18-40.112,82.18-90.764    c9.54-4.539,20.262-6.925,31.278-6.925c11.009,0,21.725,2.381,31.258,6.915c0,50.472,37.864,87.088,82.18,90.774v17.831    c0,4.141,3.357,7.497,7.497,7.497c63.24,0,114.688-51.45,114.688-114.691c0-4.141-3.357-7.497-7.497-7.497h-17.83    c-0.265-3.183-0.698-6.318-1.288-9.399C515.664,190.586,511.939,200.365,511.939,164.376z M127.579,352.097    c-49.005-3.663-88.254-42.913-91.917-91.918h10.048c3.62,43.442,38.372,78.3,81.87,81.869V352.097z M135.076,327.365    c-62.034,0-96.129-71.166-59.804-119.367c9.356-12.49,22.463-21.896,37.567-26.617c49.652-15.002,96.918,22.208,96.918,71.301    C209.759,293.862,176.257,327.365,135.076,327.365z M209.758,203.086C170.65,144.475,78.859,150.937,51.633,219.82    c-0.38-0.341-32.386-28.914-32.761-29.26c-4.748-4.329-3.772-8.684-3.772-26.183c0-2.621,2.132-4.753,4.752-4.753h185.153    c2.621,0,4.752,2.132,4.752,4.753C209.758,176.967,209.758,160.128,209.758,203.086z M287.29,234.988    c-19.539-7.365-42.253-7.644-62.536,0.008v-51.893h62.536V234.988z M302.285,252.682c0-51.262,50.967-87.999,100.342-70.14    c23.076,8.468,40.825,28.028,46.801,52.073c11.811,47.349-24.27,92.751-72.46,92.751    C335.787,327.365,302.285,293.862,302.285,252.682z M466.335,260.179h10.048c-3.663,49.005-42.913,88.255-91.917,91.918v-10.049    C427.634,338.506,462.693,303.874,466.335,260.179z M493.021,190.7l-32.612,29.118c-26.876-67.999-118.283-76.584-158.104-16.763    c0-16.075-0.021-34.734-0.021-38.679c0-2.621,2.132-4.753,4.752-4.753h185.153c2.621,0,4.752,2.132,4.752,4.753    C496.944,182.773,497.955,185.913,493.021,190.7z" fill="#f5a623"/>
	</g>
</g>
<g>
	<g>
		<circle cx="43.648" cy="179.609" r="9.33" fill="#f5a623"/>
	</g>
</g>
<g>
	<g>
		<circle cx="468.412" cy="179.609" r="9.33" fill="#f5a623"/>
	</g>
</g>
<g>
</g>
<g>
</g>
<g>
</g>
<g>
</g>
<g>
</g>
<g>
</g>
<g>
</g>
<g>
</g>
<g>
</g>
<g>
</g>
<g>
</g>
<g>
</g>
<g>
</g>
<g>
</g>
<g>
</g>
</svg>
