<?xml version="1.0" encoding="iso-8859-1"?>
<!-- Generator: Adobe Illustrator 19.0.0, SVG Export Plug-In . SVG Version: 6.00 Build 0)  -->
<svg xmlns="http://www.w3.org/2000/svg" xmlns:xlink="http://www.w3.org/1999/xlink" version="1.1" id="Capa_1" x="0px" y="0px" viewBox="0 0 511.999 511.999" style="enable-background:new 0 0 511.999 511.999;" xml:space="preserve" width="512px" height="512px">
<g>
	<g>
		<path d="M509.317,245.755C437.983,119.726,248.554,76.244,108.23,147.947c-3.688,1.885-5.151,6.404-3.266,10.092    c1.885,3.689,6.404,5.151,10.093,3.266c86.62-44.262,198.488-44.066,285.206,1.727c41.984,22.172,75.181,53.331,95.999,90.115    c0.993,1.753,0.993,3.93-0.002,5.687c-67.879,119.932-251.122,160.558-384.528,90.114c-41.984-22.173-75.18-53.333-95.998-90.114    c-0.992-1.754-0.992-3.934,0.001-5.689c17.296-30.558,43.67-57.745,76.269-78.621c3.488-2.234,4.505-6.874,2.271-10.362    c-2.233-3.488-6.875-4.505-10.361-2.271c-34.648,22.19-62.737,51.19-81.234,83.866c-3.572,6.314-3.572,14.157,0,20.467    c22.234,39.282,57.523,72.474,102.049,95.989c140.67,74.283,332.661,31.099,404.586-95.985    C512.893,259.914,512.893,252.068,509.317,245.755z" fill="#f5a623"/>
	</g>
</g>
<g>
	<g>
		<path d="M482.167,252.023c-20.994-33.692-53.3-61.99-93.424-81.836c-127.017-62.823-293.004-23.938-358.909,81.836    c-1.513,2.428-1.513,5.506,0,7.934C74.892,332.272,165.71,372.026,256,372.026c95.243,0,183.267-43.225,226.167-112.069    C483.68,257.529,483.68,254.451,482.167,252.023z M45.112,255.989c29.641-44.808,81.276-77.934,141.154-92.629    c-28.076,21.189-46.259,54.824-46.259,92.63c0,37.805,18.183,71.44,46.26,92.63C126.388,333.926,74.754,300.799,45.112,255.989z     M325.731,348.62c28.076-21.189,46.259-54.824,46.259-92.63c0-8.844-1-17.661-2.974-26.205c-0.932-4.036-4.962-6.555-8.996-5.621    c-4.036,0.932-6.554,4.96-5.621,8.996c14.695,63.634-33.898,123.82-98.4,123.82c-55.688,0-100.991-45.303-100.991-100.99    S200.313,155,255.999,155c37.82,0,72.17,20.859,89.645,54.437c1.913,3.675,6.445,5.104,10.116,3.19    c3.675-1.912,5.105-6.442,3.191-10.116c-8.139-15.639-19.467-28.874-32.956-39.086c59.764,14.729,111.29,47.822,140.89,92.564    C437.243,300.799,385.608,333.925,325.731,348.62z" fill="#f5a623"/>
	</g>
</g>
<g>
	<g>
		<path d="M232.393,172.297c-6.386,1.798-7.444,10.424-1.704,13.724c11.421,6.565,18.517,18.808,18.517,31.95    c0,35.055-44.571,50.161-65.975,22.517c-4.065-5.249-12.461-2.991-13.363,3.57c-0.553,4.026-0.833,8.041-0.833,11.933    c0,11.201,2.101,22.108,6.245,32.417c1.546,3.844,5.915,5.705,9.757,4.162c3.844-1.545,5.708-5.914,4.162-9.757    c-2.738-6.813-4.398-13.946-4.954-21.271c8.259,5.354,17.952,8.265,28.125,8.265c43.985,0,68.255-51.907,39.261-85.644    c41.295-2.523,76.328,30.421,76.328,71.827c0,39.679-32.281,71.96-71.96,71.96c-20.921,0-40.776-9.087-54.47-24.931    c-2.709-3.135-7.445-3.477-10.579-0.77c-3.134,2.709-3.479,7.446-0.77,10.58c16.547,19.144,40.537,30.123,65.82,30.123    c47.951,0,86.962-39.011,86.962-86.962C342.961,198.787,288.169,156.589,232.393,172.297z" fill="#f5a623"/>
	</g>
</g>
<g>
</g>
<g>
</g>
<g>
</g>
<g>
</g>
<g>
</g>
<g>
</g>
<g>
</g>
<g>
</g>
<g>
</g>
<g>
</g>
<g>
</g>
<g>
</g>
<g>
</g>
<g>
</g>
<g>
</g>
</svg>
