<?xml version="1.0" encoding="iso-8859-1"?>
<!-- Generator: Adobe Illustrator 19.0.0, SVG Export Plug-In . SVG Version: 6.00 Build 0)  -->
<svg xmlns="http://www.w3.org/2000/svg" xmlns:xlink="http://www.w3.org/1999/xlink" version="1.1" id="Capa_1" x="0px" y="0px" viewBox="0 0 512 512" style="enable-background:new 0 0 512 512;" xml:space="preserve" width="512px" height="512px">
<g>
	<g>
		<path d="M197.416,267.762c-2.106-3.567-6.704-4.754-10.272-2.648c-3.567,2.104-4.753,6.703-2.648,10.271    c13.122,22.242,9.546,50.515-8.694,68.755c-8.451,8.451-19.056,13.747-30.215,15.7l13.481-53.924    c0.561-2.24,0.057-4.614-1.364-6.435c-1.421-1.821-3.602-2.884-5.912-2.884h-22.459l12.197-48.788    c7.916,0.818,15.745,3.305,22.942,7.551c3.567,2.104,8.165,0.919,10.271-2.648c2.105-3.567,0.919-8.166-2.648-10.271    c-28.135-16.599-63.904-12.073-86.983,11.006c-23.079,23.079-27.605,58.848-11.007,86.984c1.399,2.371,3.899,3.69,6.467,3.69    c1.295,0,2.607-0.335,3.804-1.042c3.567-2.104,4.753-6.703,2.648-10.271c-13.122-22.241-9.546-50.515,8.694-68.755    c8.451-8.45,19.056-13.746,30.216-15.699l-13.481,53.924c-0.561,2.24-0.057,4.614,1.364,6.435s3.602,2.884,5.912,2.884h22.459    l-12.197,48.788c-7.916-0.818-15.745-3.305-22.942-7.551c-3.568-2.105-8.166-0.919-10.271,2.648    c-2.105,3.567-0.919,8.166,2.648,10.271c11.332,6.686,23.9,9.944,36.381,9.944c18.506,0,36.818-7.167,50.602-20.951    C209.489,331.667,214.015,295.898,197.416,267.762z" fill="#f5a623"/>
	</g>
</g>
<g>
	<g>
		<path d="M412.119,242.441c-28.136-16.599-63.904-12.073-86.984,11.006c-23.08,23.079-27.605,58.849-11.006,86.984    c1.399,2.371,3.899,3.69,6.467,3.69c1.295,0,2.607-0.335,3.804-1.042c3.567-2.104,4.753-6.703,2.648-10.271    c-13.122-22.241-9.546-50.514,8.694-68.755c18.239-18.24,46.513-21.813,68.754-8.693c3.567,2.104,8.167,0.919,10.271-2.648    C416.872,249.144,415.686,244.546,412.119,242.441z" fill="#f5a623"/>
	</g>
</g>
<g>
	<g>
		<path d="M437.438,267.763c-2.104-3.568-6.701-4.755-10.27-2.649c-3.567,2.104-4.753,6.703-2.648,10.271    c13.122,22.242,9.546,50.515-8.694,68.755s-46.514,21.816-68.755,8.694c-3.567-2.104-8.166-0.919-10.271,2.648    s-0.919,8.166,2.648,10.271c11.332,6.686,23.9,9.944,36.381,9.944c18.506,0,36.819-7.167,50.603-20.95    C449.511,331.668,454.037,295.899,437.438,267.763z" fill="#f5a623"/>
	</g>
</g>
<g>
	<g>
		<path d="M502.76,139.443l-33.037-33.037c-2.929-2.929-7.678-2.929-10.606,0c-2.929,2.929-2.929,7.678,0,10.606l33.037,33.037    c3.126,3.126,4.847,7.282,4.847,11.702v62.7h-54.435c-17.99-15.006-41.119-24.048-66.323-24.048    c-48.652,0-89.578,33.683-100.703,78.952c-5.378-4.256-12.164-6.807-19.539-6.807s-14.161,2.551-19.539,6.807    c-11.125-45.269-52.051-78.952-100.703-78.952c-25.204,0-48.333,9.042-66.323,24.048H15v-62.7c0-4.42,1.721-8.576,4.847-11.702    l33.037-33.037c2.929-2.929,2.929-7.678,0-10.606c-2.929-2.929-7.678-2.929-10.606,0L9.24,139.443    C3.281,145.403,0,153.325,0,161.751v87.402c0,12.027,6.682,22.839,17.439,28.218l16.295,8.147    c-1.095,6.03-1.67,12.238-1.67,18.578c0,57.177,46.517,103.694,103.694,103.694s103.693-46.517,103.693-103.694    c0-9.125,7.423-16.548,16.548-16.548s16.548,7.423,16.548,16.548c0,57.177,46.517,103.694,103.693,103.694    c57.176,0,103.694-46.517,103.694-103.694c0-6.34-0.575-12.549-1.67-18.578l16.295-8.147C505.318,271.993,512,261.18,512,249.153    v-87.402C512,153.325,508.719,145.403,502.76,139.443z M24.148,263.955C18.505,261.133,15,255.462,15,249.153v-9.702h39.745    c-7.398,9.252-13.25,19.791-17.153,31.225L24.148,263.955z M135.758,392.79c-48.906,0-88.694-39.788-88.694-88.694    s39.788-88.693,88.694-88.693s88.693,39.788,88.693,88.693C224.451,353.001,184.664,392.79,135.758,392.79z M376.242,392.79    c-48.906,0-88.693-39.788-88.693-88.694s39.788-88.693,88.693-88.693c48.905,0,88.694,39.788,88.694,88.693    C464.936,353.001,425.147,392.79,376.242,392.79z M497,249.153c0,6.309-3.505,11.98-9.147,14.801l-13.444,6.722    c-3.904-11.435-9.755-21.973-17.153-31.225H497V249.153z" fill="#f5a623"/>
	</g>
</g>
<g>
</g>
<g>
</g>
<g>
</g>
<g>
</g>
<g>
</g>
<g>
</g>
<g>
</g>
<g>
</g>
<g>
</g>
<g>
</g>
<g>
</g>
<g>
</g>
<g>
</g>
<g>
</g>
<g>
</g>
</svg>
