<?xml version="1.0"?>
<svg xmlns="http://www.w3.org/2000/svg" height="512px" viewBox="0 -118 512.00273 512" width="512px"><path d="m239.96875 156.253906h.082031c4.140625 0 7.460938-3.355468 7.460938-7.496094 0-4.144531-3.398438-7.5-7.542969-7.5-4.140625 0-7.5 3.355469-7.5 7.5 0 4.140626 3.359375 7.496094 7.5 7.496094zm0 0" fill="#f5a623"/><path d="m511.175781 117.710938c-1.964843-6.054688-7.101562-10.386719-13.402343-11.300782l-37.683594-5.476562-16.851563-34.144532c-2.816406-5.710937-8.523437-9.257812-14.890625-9.257812-6.367187 0-12.074218 3.546875-14.890625 9.257812l-16.382812 33.195313c-3.488281-6.757813-9.972657-11.457031-17.691407-12.578125l-30.742187-4.46875c-4.097656-.59375-7.90625 2.246094-8.5 6.34375s2.246094 7.902344 6.34375 8.5l30.742187 4.464844c3.386719.496094 6.042969 2.730468 7.101563 5.988281 1.054687 3.253906.222656 6.625-2.226563 9.015625l-53.84375 52.484375c-1.769531 1.722656-2.574218 4.207031-2.160156 6.640625l12.710938 74.109375c.582031 3.375-.726563 6.589844-3.496094 8.605469-2.300781 1.667968-5.074219 2.105468-7.683594 1.300781v-28.382813c0-9.753906-6.132812-18.609374-15.269531-22.03125l-19.273437-7.230468c-3.3125-1.242188-5.535157-4.453125-5.535157-7.988282v-10.429687c9.824219-8.722656 16.03125-21.433594 16.03125-35.574219v-16.03125c0-21.816406-17.75-39.5625-39.5625-39.5625h-16.035156c-21.8125 0-39.5625 17.75-39.5625 39.5625v16.03125c0 14.140625 6.207031 26.855469 16.03125 35.574219v10.429687c0 3.539063-2.222656 6.75-5.535156 7.988282l-19.273438 7.230468c-9.132812 3.421876-15.269531 12.277344-15.269531 22.03125v28.382813c-2.613281.804687-5.382812.367187-7.683594-1.300781-2.769531-2.011719-4.078125-5.230469-3.496094-8.605469l12.710938-74.109375c.414062-2.433594-.390625-4.914062-2.160156-6.636719l-53.84375-52.488281c-2.453125-2.390625-3.28125-5.757812-2.226563-9.015625 1.058594-3.257813 3.714844-5.492187 7.101563-5.984375l74.410156-10.816406c2.445312-.351563 4.558594-1.886719 5.648438-4.101563l33.277343-67.429687c1.515625-3.066406 4.464844-4.902344 7.886719-4.902344 3.425781 0 6.371094 1.835938 7.886719 4.902344l33.277343 67.429687c1.09375 2.214844 3.207032 3.75 5.648438 4.101563l12.253906 1.78125c4.101563.597656 7.90625-2.242188 8.5-6.339844.597656-4.101562-2.246094-7.90625-6.34375-8.5l-8.351562-1.214844-31.53125-63.894531c-4.039063-8.179687-12.214844-13.265625-21.339844-13.265625-9.121094 0-17.300781 5.085938-21.335938 13.265625l-31.535156 63.894531-70.507812 10.246094c-7.71875 1.121094-14.203125 5.820312-17.691406 12.582031l-16.382813-33.199219c-2.816406-5.710937-8.523437-9.257812-14.890625-9.257812s-12.074219 3.546875-14.890625 9.257812l-16.851563 34.144532-37.683593 5.476562c-6.300781.917969-11.4375 5.246094-13.40625 11.304688-1.96875 6.054687-.355469 12.578125 4.203125 17.019531l27.265625 26.582031-6.4375 37.527344c-1.074219 6.277344 1.457031 12.5 6.609375 16.242188 5.148437 3.742187 11.851562 4.226562 17.484375 1.265624l33.707031-17.71875 33.699219 17.71875c2.453125 1.289063 5.105469 1.921876 7.746093 1.921876 3.429688 0 6.832032-1.074219 9.746094-3.1875 5.148438-3.742188 7.679688-9.964844 6.605469-16.242188l-6.4375-37.527344 9.296875-9.066406 26.140625 25.480469-12.046875 70.222656c-1.539062 8.992187 2.085938 17.910156 9.46875 23.273437 4.167969 3.03125 9.050781 4.570313 13.960938 4.570313 3.785156 0 7.585937-.910156 11.097656-2.757813l63.066406-33.15625 63.066406 33.15625c8.078125 4.246094 17.675782 3.550782 25.058594-1.8125 7.382812-5.363281 11.011719-14.28125 9.46875-23.273437l-12.046875-70.226563 26.140625-25.476562 9.296875 9.0625-6.4375 37.53125c-1.074219 6.273438 1.457031 12.5 6.605469 16.242188 2.914062 2.113281 6.316406 3.1875 9.746094 3.1875 2.640624 0 5.292968-.636719 7.742187-1.925782l33.703125-17.71875 33.707031 17.71875c5.632813 2.960938 12.335938 2.480469 17.484375-1.261718 5.152344-3.742188 7.683594-9.964844 6.609375-16.242188l-6.4375-37.53125 27.265625-26.578125c4.5625-4.445313 6.171875-10.96875 4.203125-17.023437zm-391.609375 42.25 7.105469 41.417968c.113281.652344-.101563 1.179688-.640625 1.570313-.535156.390625-1.101562.429687-1.6875.121093l-37.195312-19.554687c-2.183594-1.144531-4.792969-1.144531-6.980469 0l-37.191407 19.554687c-.585937.308594-1.15625.269532-1.691406-.121093s-.75-.917969-.640625-1.570313l7.105469-41.417968c.414062-2.429688-.390625-4.914063-2.15625-6.636719l-30.089844-29.328125c-.476562-.464844-.613281-1.019532-.40625-1.648438.203125-.628906.640625-.996094 1.296875-1.09375l41.582031-6.039062c2.441407-.355469 4.554688-1.890625 5.648438-4.105469l18.59375-37.679687c.292969-.59375.78125-.898438 1.441406-.898438.664063 0 1.148438.300781 1.441406.898438l18.597657 37.679687c1.089843 2.214844 3.203125 3.75 5.644531 4.105469l3.371094.488281c.929687 4.578125 3.207031 8.867187 6.722656 12.289063l14.136719 13.785156-11.847657 11.546875c-1.769531 1.722656-2.578124 4.207031-2.160156 6.636719zm128.417969-51.800782h16.035156c10.824219 0 20.03125 7.042969 23.292969 16.789063-23.789062-1.429688-43.835938-8.265625-53.617188-12.1875 4.03125-2.890625 8.964844-4.601563 14.289063-4.601563zm-24.5625 40.597656v-16.035156c0-2.609375.414063-5.121094 1.171875-7.484375 9.324219 4.054688 33.839844 13.417969 63.988281 14.808594v8.710937c0 17.964844-14.617187 32.578126-32.582031 32.578126s-32.578125-14.613282-32.578125-32.578126zm-24.046875 103.945313v-20.691406c0-3.539063 2.222656-6.75 5.535156-7.992188l16.433594-6.160156 6.828125 6.761719c3.152344 3.113281 6.710937 5.582031 10.507813 7.417968zm39.347656-38.746094-4.496094-4.449219c3.300782-4.101562 5.226563-9.285156 5.226563-14.75v-1.394531c5.15625 1.917969 10.730469 2.972657 16.546875 2.972657 5.820312 0 11.394531-1.054688 16.550781-2.972657v1.394531c0 5.464844 1.925781 10.648438 5.226563 14.75l-4.496094 4.449219c-9.527344 9.429688-25.03125 9.429688-34.558594 0zm73.90625 38.746094-39.300781-20.660156c3.792969-1.835938 7.355469-4.304688 10.503906-7.421875l6.832031-6.761719 16.429688 6.164063c3.3125 1.242187 5.539062 4.453124 5.539062 7.988281v20.691406zm183.875-128.710937-30.089844 29.332031c-1.765624 1.722656-2.574218 4.207031-2.15625 6.636719l7.105469 41.417968c.109375.652344-.105469 1.179688-.640625 1.570313s-1.105468.429687-1.691406.121093l-37.191406-19.554687c-2.1875-1.148437-4.796875-1.148437-6.980469 0l-37.195313 19.554687c-.585937.308594-1.152343.265626-1.6875-.121093-.539062-.390625-.753906-.917969-.640624-1.570313l7.105468-41.417968c.414063-2.433594-.390625-4.914063-2.160156-6.636719l-11.847656-11.550781 14.140625-13.78125c3.511719-3.425782 5.789062-7.714844 6.71875-12.292969l3.371093-.488281c2.445313-.355469 4.554688-1.890626 5.648438-4.105469l18.597656-37.679688c.292969-.59375.777344-.898437 1.4375-.898437.664063 0 1.148438.300781 1.441406.898437l18.597657 37.679688c1.089843 2.214843 3.203125 3.75 5.644531 4.105469l41.585938 6.039062c.65625.097656 1.089843.464844 1.292968 1.09375.207032.628906.070313 1.1875-.40625 1.648438zm0 0" fill="#f5a623"/><path d="m272.09375 156.253906h.082031c4.140625 0 7.457031-3.355468 7.457031-7.496094 0-4.144531-3.394531-7.5-7.539062-7.5-4.140625 0-7.5 3.355469-7.5 7.5 0 4.140626 3.359375 7.496094 7.5 7.496094zm0 0" fill="#f5a623"/></svg>
