<?xml version="1.0" encoding="iso-8859-1"?>
<!-- Generator: Adobe Illustrator 19.0.0, SVG Export Plug-In . SVG Version: 6.00 Build 0)  -->
<svg xmlns="http://www.w3.org/2000/svg" xmlns:xlink="http://www.w3.org/1999/xlink" version="1.1" id="Capa_1" x="0px" y="0px" viewBox="0 0 512.001 512.001" style="enable-background:new 0 0 512.001 512.001;" xml:space="preserve" width="512px" height="512px">
<g>
	<g>
		<path d="M219.227,199.234c-17.939,0-31.467,24.404-31.467,56.765c0,32.361,13.528,56.765,31.467,56.765    S250.695,288.36,250.695,256C250.695,223.638,237.167,199.234,219.227,199.234z M219.227,297.764    c-6.713,0-16.466-16.27-16.466-41.765c0-25.495,9.753-41.765,16.466-41.765c6.714,0,16.467,16.27,16.467,41.765    C235.694,281.494,225.942,297.764,219.227,297.764z" fill="#f5a623"/>
	</g>
</g>
<g>
	<g>
		<path d="M504.5,175.6h-32.418c-16.26-34.436-43.142-63.757-76.138-82.925c-3.582-2.08-8.172-0.864-10.254,2.718    c-2.08,3.582-0.863,8.172,2.718,10.254c31.692,18.41,57.257,46.99,71.984,80.474c1.197,2.723,3.891,4.48,6.865,4.48h29.74v21.616    H439.35c-18.877-59.683-74.799-101.194-138.236-101.194c-64.41,0-119.016,41.987-137.931,100.248    c-34.691,19.654-34.685,69.804-0.001,89.457c6.793,20.939,18.457,40.311,33.862,56.195c2.884,2.974,7.633,3.046,10.606,0.162    c2.974-2.884,3.046-7.632,0.162-10.606c-14.48-14.93-25.271-33.29-31.21-53.096c-0.602-2.009-2.019-3.674-3.904-4.591    c-12.666-6.156-20.533-18.722-20.533-32.792c0-14.07,7.867-26.635,20.533-32.793c1.887-0.917,3.303-2.582,3.904-4.591    c16.345-54.517,67.545-92.592,124.512-92.592c45.302,0,86.46,23.633,109.847,60.487l-9.608,16.287h-10.364    c-4.143,0-7.5,3.358-7.5,7.5c0,4.142,3.357,7.5,7.5,7.5h14.647c2.654,0,5.111-1.403,6.46-3.689l7.215-12.231    c2.9,6.325,5.317,12.943,7.193,19.814c0.891,3.262,3.854,5.525,7.235,5.525h63.257v21.182h-82.74l-32.175-11.491l-9.078-40.084    c-0.545-2.406-2.238-4.391-4.528-5.307l-14.979-5.992c-3.847-1.539-8.211,0.331-9.751,4.178c-1.538,3.846,0.332,8.211,4.178,9.75    l11.32,4.528l7.768,34.304l-23.733,10.787c-3.771,1.714-5.438,6.16-3.725,9.932c1.714,3.771,6.16,5.438,9.933,3.724l26.528-12.058    l14.03,5.01l-13.768,24.565l-19.669,4.276c-4.048,0.88-6.616,4.874-5.736,8.923c0.764,3.511,3.87,5.908,7.322,5.908    c0.527,0,1.063-0.056,1.6-0.173l22.968-4.993c2.099-0.456,3.9-1.789,4.949-3.662l16.662-29.727l6.062,2.165    c0.81,0.289,1.663,0.437,2.522,0.437h84.039v21.382h-63.257c-3.382,0-6.345,2.263-7.235,5.525    c-3.749,13.737-9.657,26.459-17.285,37.85l-35.215,5.654c-8.174-7.259-13.487-11.978-22.64-20.107    c-3.099-2.752-7.839-2.47-10.589,0.627c-2.751,3.097-2.47,7.837,0.627,10.589l9.913,8.805l-15.731,11.69    c-3.324,2.471-4.017,7.169-1.546,10.495c1.472,1.98,3.733,3.027,6.025,3.027c1.555,0,3.124-0.482,4.468-1.48l18.24-13.555    c8.375,7.438,4.247,6.226,32.454,1.697c-23.982,25.118-57.711,40.377-94.114,40.377c-26.73,0-52.4-8.049-74.24-23.278    c-3.398-2.372-8.074-1.536-10.443,1.862c-2.369,3.397-1.535,8.073,1.862,10.443c80.139,55.884,191.738,17.476,221.056-75.218    h57.648v21.614h-29.738c-2.975,0-5.668,1.758-6.865,4.48c-27.755,63.098-90.209,103.869-159.113,103.869    c-95.806,0-173.749-77.943-173.749-173.749c0-122.106,123.495-206.57,237.365-161.733c3.854,1.516,8.209-0.377,9.728-4.23    c1.518-3.854-0.377-8.209-4.23-9.728c-22.005-8.666-45.259-13.059-69.112-13.059c-104.076,0-188.749,84.672-188.749,188.749    S197.206,444.75,301.282,444.75c73.205,0,139.71-42.366,170.803-108.35h32.415c4.143,0,7.5-3.358,7.5-7.5    c0-1.374,0-144.317,0-145.798C512,178.958,508.642,175.6,504.5,175.6z" fill="#f5a623"/>
	</g>
</g>
<g>
	<g>
		<path d="M124.461,154.02c2.62-4.65,3.272-10.044,1.837-15.185c-4.791-17.145-27.973-19.851-36.657-4.431    c-17.449,30.977-28.105,65.962-30.998,101.612h-38.66C8.965,236.016,0,244.981,0,256s8.965,19.983,19.982,19.983h38.659    c2.894,35.649,13.549,70.635,30.998,101.612c3.536,6.277,10.213,10.178,17.422,10.178c3.417,0,6.804-0.89,9.797-2.575    c9.601-5.406,13.012-17.616,7.604-27.218C88.948,294.934,88.89,217.169,124.461,154.02z M107.063,372.772    c-1.802,0-3.47-0.973-4.353-2.539c-17.477-31.026-27.698-66.346-29.56-102.14c-0.208-3.985-3.499-7.11-7.49-7.11H19.982    c-2.747,0-4.981-2.235-4.981-4.982c0-2.747,2.234-4.982,4.981-4.982h45.677c3.991,0,7.282-3.125,7.49-7.11    c1.861-35.794,12.083-71.114,29.561-102.141c0.652-1.159,1.718-1.994,3-2.353c4.231-1.182,7.871,3.356,5.68,7.243    c-38.094,67.634-38.135,150.981,0.002,218.684C113.263,368.662,110.841,372.772,107.063,372.772z" fill="#f5a623"/>
	</g>
</g>
<g>
</g>
<g>
</g>
<g>
</g>
<g>
</g>
<g>
</g>
<g>
</g>
<g>
</g>
<g>
</g>
<g>
</g>
<g>
</g>
<g>
</g>
<g>
</g>
<g>
</g>
<g>
</g>
<g>
</g>
</svg>
