<?xml version="1.0" encoding="iso-8859-1"?>
<!-- Generator: Adobe Illustrator 19.0.0, SVG Export Plug-In . SVG Version: 6.00 Build 0)  -->
<svg xmlns="http://www.w3.org/2000/svg" xmlns:xlink="http://www.w3.org/1999/xlink" version="1.1" id="Capa_1" x="0px" y="0px" viewBox="0 0 512 512" style="enable-background:new 0 0 512 512;" xml:space="preserve" width="512px" height="512px">
<g>
	<g>
		<path d="M338.517,496.978H222.272c-4.148,0-7.511,3.363-7.511,7.511c0,4.148,3.363,7.511,7.511,7.511h116.245    c4.148,0,7.511-3.363,7.511-7.511C346.028,500.341,342.665,496.978,338.517,496.978z" fill="#f5a623"/>
	</g>
</g>
<g>
	<g>
		<path d="M190.888,158.038c-4.148,0-7.511,3.363-7.511,7.511v261.52l-21.414,16.655h-30.454c-6.912,0-12.536,5.623-12.536,12.536    v43.204c0,6.912,5.624,12.536,12.536,12.536h37.497c4.148,0,7.511-3.363,7.511-7.511c0-4.148-3.363-7.511-7.511-7.511h-35.012    v-38.232h28.822c2.774,0,5.507-0.938,7.696-2.641l23.047-17.925c3.075-2.392,4.839-5.999,4.839-9.895V165.549    C198.399,161.401,195.036,158.038,190.888,158.038z" fill="#f5a623"/>
	</g>
</g>
<g>
	<g>
		<path d="M457.516,437.393l-35.467-35.556c2.994-4.827,2.41-11.26-1.776-15.446l-13.101-13.101    c-2.364-2.365-5.508-3.667-8.852-3.667c-2.066,0-4.054,0.5-5.831,1.438c-2.651-3.724-4.277-8.116-4.644-12.721l-0.671-8.421    c-1.289-16.175-12.7-29.808-28.396-33.925l-77.154-20.231V67.091h64.467v39.533c0,6.912,5.624,12.536,12.536,12.536h42.617    c6.912,0,12.536-5.623,12.536-12.536V12.536C413.779,5.623,408.156,0,401.243,0H63.758c-6.912,0-12.536,5.623-12.536,12.536    v94.088c0,6.912,5.623,12.536,12.536,12.536h42.617c6.912,0,12.536-5.623,12.536-12.536V67.091h64.467v44.56    c0,4.148,3.363,7.511,7.511,7.511c4.148,0,7.511-3.363,7.511-7.511V64.605c0-6.912-5.623-12.536-12.536-12.536h-69.439    c-6.912,0-12.536,5.623-12.536,12.536v39.533H66.244V15.022h332.513v89.116h-37.645V64.605c0-6.912-5.623-12.536-12.536-12.536    h-69.439c-6.912,0-12.536,5.623-12.536,12.536c0,6.925,0,13.85,0,20.775c0,16.965,0,33.93,0,50.895c0,21.314,0,42.628,0,63.941    c0,19.972,0,39.943,0,59.915c0,12.938,0,25.877,0,38.816c0,9.803,2.457,18.406,4.919,27.797    c2.815,10.735,5.629,21.47,8.444,32.205c2.483,9.47,4.966,18.94,7.449,28.409c4.115,15.696,17.749,27.108,33.925,28.397l8.42,0.67    c4.605,0.367,8.997,1.993,12.721,4.644c-0.937,1.776-1.437,3.764-1.437,5.83c0,3.344,1.302,6.488,3.667,8.852l13.101,13.101    c2.441,2.441,5.645,3.661,8.852,3.661c2.286,0,4.568-0.633,6.578-1.875l35.45,35.54c2.114,2.12,4.927,3.288,7.927,3.29    c2.991,0,5.802-1.165,7.916-3.28l32.973-32.973C461.865,448.857,461.87,441.759,457.516,437.393z M330.952,401.452l-8.42-0.671    c-9.816-0.782-18.089-7.708-20.587-17.233l-15.068-57.468l25.822,25.822c-4.775,9.28-3.288,20.974,4.478,28.74    c4.809,4.809,11.125,7.213,17.442,7.213c6.317,0,12.633-2.404,17.442-7.213c9.618-9.618,9.618-25.266,0-34.884    c-7.766-7.766-19.46-9.253-28.74-4.478l-25.824-25.823l57.471,15.07c9.525,2.498,16.45,10.771,17.232,20.587l0.671,8.421    c0.636,7.98,3.632,15.571,8.544,21.81l-28.653,28.653C346.522,405.084,338.932,402.088,330.952,401.452z M327.799,356.38    c1.88-1.88,4.35-2.82,6.82-2.82c2.469,0,4.939,0.94,6.82,2.82c3.76,3.76,3.76,9.88,0,13.64c-3.76,3.761-9.879,3.76-13.64,0    C324.038,366.259,324.038,360.14,327.799,356.38z M366.662,436.461l-9.56-9.56l41.218-41.218l9.561,9.56l-1.512,1.512    c-0.002,0.002-0.004,0.003-0.006,0.005l-20.26,20.26L366.662,436.461z M416.62,472.858l-32.514-32.596l19.05-19.051l8.511-8.511    l32.515,32.596L416.62,472.858z" fill="#f5a623"/>
	</g>
</g>
<g>
</g>
<g>
</g>
<g>
</g>
<g>
</g>
<g>
</g>
<g>
</g>
<g>
</g>
<g>
</g>
<g>
</g>
<g>
</g>
<g>
</g>
<g>
</g>
<g>
</g>
<g>
</g>
<g>
</g>
</svg>
