<?xml version="1.0" encoding="iso-8859-1"?>
<!-- Generator: Adobe Illustrator 19.0.0, SVG Export Plug-In . SVG Version: 6.00 Build 0)  -->
<svg xmlns="http://www.w3.org/2000/svg" xmlns:xlink="http://www.w3.org/1999/xlink" version="1.1" id="Layer_1" x="0px" y="0px" viewBox="0 0 511.999 511.999" style="enable-background:new 0 0 511.999 511.999;" xml:space="preserve" width="512px" height="512px">
<g>
	<g>
		<g>
			<path d="M364.371,80.514L299.7,117.139c-2.534,1.436-4.1,4.122-4.1,7.034v59.524h-10.463v-5.928     c0-11.59-9.429-21.019-21.019-21.019c-11.59,0-21.019,9.429-21.019,21.019v28.025c0,11.59,9.429,21.019,21.019,21.019     c11.59,0,21.019-9.429,21.019-21.019v-5.928h10.463v21.316c-10.835,0.831-19.402,9.893-19.402,20.937v133.214v52.184     c0,9.896,6.883,18.195,16.108,20.415c-1.251,26.623-23.299,47.898-50.228,47.898c-27.729,0-50.286-22.558-50.286-50.285V228.995     c0-4.466-3.62-8.084-8.084-8.084c-4.466,0-8.084,3.618-8.084,8.084v216.551c0,36.643,29.811,66.453,66.454,66.453     c35.834,0,65.116-28.509,66.395-64.035c9.286-2.176,16.23-10.507,16.23-20.448v-52.184v-60.107c0-4.466-3.619-8.084-8.084-8.084     c-4.466,0-8.084,3.618-8.084,8.084v52.023h-16.168V242.119c0-2.675,2.175-4.851,4.851-4.851h6.467     c2.674,0,4.851,2.175,4.851,4.851v47.238c0,4.466,3.618,8.084,8.084,8.084c4.466,0,8.084-3.618,8.084-8.084v-47.238     c0-8.726-5.347-16.223-12.935-19.398v-22.857h4.851c4.466,0,8.084-3.619,8.084-8.084c0-4.466-3.619-8.084-8.084-8.084h-4.851     v-54.811l60.571-34.303c3.885-2.2,5.25-7.134,3.05-11.019C373.189,79.681,368.258,78.314,364.371,80.514z M268.968,205.794     c0,2.674-2.176,4.851-4.851,4.851c-2.675,0-4.851-2.176-4.851-4.851v-28.025c0-2.675,2.175-4.851,4.851-4.851     c2.674,0,4.851,2.175,4.851,4.851V205.794z M308.534,383.418v44.1c0,2.674-2.176,4.851-4.851,4.851h-6.467     c-2.675,0-4.851-2.176-4.851-4.851v-44.1H308.534z" fill="#f5a623"/>
			<path d="M510.411,4.041c-1.59-2.754-4.654-4.312-7.808-4.002l-86.526,8.689c-26.866,2.697-46.529,26.748-43.833,53.615     c0.634,6.321,2.46,12.373,5.427,17.989c0.094,0.177,0.194,0.351,0.301,0.521c3.374,5.372,7.703,9.98,12.865,13.695     c8.386,6.034,18.263,9.222,28.565,9.222c15.733,0,30.605-7.615,39.783-20.372l50.787-70.591     C511.829,10.224,512.001,6.795,510.411,4.041z M413.397,72.929c-2.456,3.415-6.442,5.454-10.656,5.454     c-2.751,0-5.392-0.854-7.638-2.471c-1.296-0.931-2.397-2.077-3.276-3.406c-0.711-1.425-1.153-2.952-1.314-4.545     c-0.722-7.189,4.54-13.626,11.729-14.347l27.002-2.711L413.397,72.929z M446.061,73.953     c-5.679,7.893-14.617,12.838-24.258,13.548c1.756-1.502,3.345-3.219,4.719-5.129l26.32-36.583     c1.857-2.581,2.029-6.009,0.439-8.763s-4.65-4.315-7.808-4.002l-44.845,4.502c-2.365,0.238-4.633,0.759-6.782,1.514     c5.273-7.755,13.807-13.218,23.846-14.225l68.685-6.896L446.061,73.953z" fill="#f5a623"/>
			<path d="M183.706,211.21c4.465,0,8.084-3.618,8.084-8.084v-42.518c0-36.643-29.814-66.453-66.459-66.453     c-36.643,0-66.454,29.81-66.454,66.453v139.634c0,27.728-22.559,50.285-50.288,50.285c-4.466,0-8.084,3.619-8.084,8.084     c0,4.466,3.618,8.084,8.084,8.084c36.644,0,66.457-29.81,66.457-66.453V160.608c0-27.728,22.558-50.285,50.286-50.285     c27.731,0,50.29,22.558,50.29,50.285v42.518C175.622,207.591,179.24,211.21,183.706,211.21z" fill="#f5a623"/>
		</g>
	</g>
</g>
<g>
</g>
<g>
</g>
<g>
</g>
<g>
</g>
<g>
</g>
<g>
</g>
<g>
</g>
<g>
</g>
<g>
</g>
<g>
</g>
<g>
</g>
<g>
</g>
<g>
</g>
<g>
</g>
<g>
</g>
</svg>
