<?xml version="1.0"?>
<svg xmlns="http://www.w3.org/2000/svg" height="512px" viewBox="0 -72 368.64 368" width="512px"><g><path d="m184.320312 224.515625c-103.359374 0-184.320312-34.480469-184.320312-78.503906v-75.09375c0-3.769531 3.054688-6.828125 6.828125-6.828125s6.824219 3.058594 6.824219 6.828125c0 31.320312 68.582031 64.851562 170.667968 64.851562 102.085938 0 170.667969-33.53125 170.667969-64.851562 0-3.769531 3.050781-6.828125 6.824219-6.828125s6.828125 3.058594 6.828125 6.828125v75.09375c0 44.023437-80.960937 78.503906-184.320313 78.503906zm-170.667968-123.394531v44.890625c0 31.320312 68.582031 64.851562 170.667968 64.851562 102.085938 0 170.667969-33.53125 170.667969-64.851562v-44.890625c-27.261719 28.617187-92.566406 48.304687-170.667969 48.304687-78.101562 0-143.40625-19.6875-170.667968-48.304687zm0 0" data-original="#000000" class="active-path" data-old_color="#000000" fill="#F5A623"/><path d="m33.121094 115.289062c-1.300782 0-2.609375-.371093-3.742188-1.113281-19.21875-12.597656-29.378906-27.558593-29.378906-43.257812 0-30.0625 36.597656-56.078125 97.898438-69.597657 12.65625-2.785156 25.746093.308594 35.933593 8.492188 10.394531 8.355469 16.355469 20.78125 16.355469 34.09375 0 21.527344-14.972656 39.503906-35.59375 43.140625-32.035156 5.636719-59.632812 15.273437-77.734375 27.128906-1.132813.742188-2.4375 1.113281-3.738281 1.113281zm73.925781-101.316406c-2.066406 0-4.148437.230469-6.214844.679688-52.957031 11.679687-87.179687 33.765625-87.179687 56.265625 0 12.21875 9.980468 22.394531 19.640625 29.378906 19.660156-11.847656 46.816406-21.046875 78.925781-26.699219 14.089844-2.484375 24.316406-14.804687 24.316406-29.300781 0-9.550781-4.101562-18.097656-11.253906-23.84375-5.28125-4.238281-11.6875-6.480469-18.234375-6.480469zm0 0" data-original="#000000" class="active-path" data-old_color="#000000" fill="#F5A623"/><path d="m335.519531 115.289062c-1.300781 0-2.605469-.371093-3.738281-1.113281-16.992188-11.128906-41.546875-20.089843-71.007812-25.898437-20.566407-4.054688-35.492188-22.019532-35.492188-42.71875 0-13.46875 6.089844-25.945313 16.71875-34.238282 10.699219-8.34375 24.378906-11.2304682 37.554688-7.921874 55.785156 14 89.085937 39.238281 89.085937 67.519531 0 15.699219-10.160156 30.660156-29.382813 43.257812-1.132812.742188-2.4375 1.113281-3.738281 1.113281zm-66.691406-99.570312c-6.621094 0-13.066406 2.1875-18.425781 6.367188-7.289063 5.683593-11.46875 14.238281-11.46875 23.46875 0 14.199218 10.292968 26.53125 24.480468 29.328124 29.035157 5.726563 53.773438 14.476563 71.933594 25.414063 9.660156-6.984375 19.640625-17.160156 19.640625-29.378906 0-21.289063-30.183593-42.085938-78.753906-54.28125-2.460937-.617188-4.949219-.917969-7.40625-.917969zm0 0" data-original="#000000" class="active-path" data-old_color="#000000" fill="#F5A623"/></g> </svg>
