<?xml version="1.0"?>
<svg xmlns="http://www.w3.org/2000/svg" height="512px" viewBox="0 0 64 64" width="512px" class=""><g><path d="m15 8h2v4h-2z" data-original="#000000" class="active-path" data-old_color="#000000" fill="#F5A623"/><path d="m15 14h2v4h-2z" data-original="#000000" class="active-path" data-old_color="#000000" fill="#F5A623"/><path d="m21 8h2v4h-2z" data-original="#000000" class="active-path" data-old_color="#000000" fill="#F5A623"/><path d="m21 14h2v4h-2z" data-original="#000000" class="active-path" data-old_color="#000000" fill="#F5A623"/><path d="m39 38h2v4h-2z" data-original="#000000" class="active-path" data-old_color="#000000" fill="#F5A623"/><path d="m49 38h2v4h-2z" data-original="#000000" class="active-path" data-old_color="#000000" fill="#F5A623"/><path d="m7.658 57.94 11 4a1 1 0 0 0 .684 0l11-4a1 1 0 0 0 .658-.94v-18a1 1 0 0 0 -1-1h-3v-2h1a1 1 0 0 0 1-1v-4a1 1 0 0 0 -1-1h-1v-2h1a1 1 0 0 0 1-1v-4a1 1 0 0 0 -1-1h-1v-19a1 1 0 0 0 -1-1h-14a1 1 0 0 0 -1 1v19h-1a1 1 0 0 0 -1 1v4a1 1 0 0 0 1 1h1v2h-1a1 1 0 0 0 -1 1v4a1 1 0 0 0 1 1h1v2h-3a1 1 0 0 0 -1 1v18a1 1 0 0 0 .658.94zm5.342-5.94v-8h3v8zm5-8h2v8h-2zm4 0h3v8h-3zm-9-40h2v2h2v-2h4v2h2v-2h2v18h-2v-2h-2v2h-4v-2h-2v2h-2zm-2 20h16v2h-16zm2 4h12v2h-12zm-2 4h16v2h-16zm4 4v4h2v-4h4v4h2v-4h2v6h-12v-6zm-6 4h2v13a1 1 0 0 0 1 1h14a1 1 0 0 0 1-1v-13h2v16.3l-10 3.636-10-3.636z" data-original="#000000" class="active-path" data-old_color="#000000" fill="#F5A623"/><path d="m44.445 2.168-9 6a1 1 0 0 0 -.445.832v39h-1a1 1 0 0 0 -1 1v4a1 1 0 0 0 1 1h1v7a1 1 0 0 0 1 1h18a1 1 0 0 0 1-1v-7h1a1 1 0 0 0 1-1v-4a1 1 0 0 0 -1-1h-1v-39a1 1 0 0 0 -.445-.832l-9-6a1 1 0 0 0 -1.11 0zm8.555 57.832h-2v-4h-2v4h-8v-4h-2v4h-2v-6h16zm2-8h-20v-2h20zm-2-4h-2v-4h-2v4h-8v-4h-2v4h-2v-38.465l2-1.335v3.8h2v-5.132l4-2.668 4 2.666v5.134h2v-3.8l2 1.333z" data-original="#000000" class="active-path" data-old_color="#000000" fill="#F5A623"/><path d="m39 20h2v4h-2z" data-original="#000000" class="active-path" data-old_color="#000000" fill="#F5A623"/><path d="m39 26h2v4h-2z" data-original="#000000" class="active-path" data-old_color="#000000" fill="#F5A623"/><path d="m49 20h2v4h-2z" data-original="#000000" class="active-path" data-old_color="#000000" fill="#F5A623"/><path d="m39 14h2v4h-2z" data-original="#000000" class="active-path" data-old_color="#000000" fill="#F5A623"/><path d="m49 14h2v4h-2z" data-original="#000000" class="active-path" data-old_color="#000000" fill="#F5A623"/><path d="m49 26h2v4h-2z" data-original="#000000" class="active-path" data-old_color="#000000" fill="#F5A623"/><path d="m39 32h2v4h-2z" data-original="#000000" class="active-path" data-old_color="#000000" fill="#F5A623"/><path d="m49 32h2v4h-2z" data-original="#000000" class="active-path" data-old_color="#000000" fill="#F5A623"/><path d="m44 12h2v2h-2z" data-original="#000000" class="active-path" data-old_color="#000000" fill="#F5A623"/><path d="m44 18h2v2h-2z" data-original="#000000" class="active-path" data-old_color="#000000" fill="#F5A623"/><path d="m44 24h2v2h-2z" data-original="#000000" class="active-path" data-old_color="#000000" fill="#F5A623"/><path d="m44 30h2v2h-2z" data-original="#000000" class="active-path" data-old_color="#000000" fill="#F5A623"/><path d="m44 36h2v2h-2z" data-original="#000000" class="active-path" data-old_color="#000000" fill="#F5A623"/><path d="m44 42h2v2h-2z" data-original="#000000" class="active-path" data-old_color="#000000" fill="#F5A623"/></g> </svg>
