<?xml version="1.0"?>
<svg xmlns="http://www.w3.org/2000/svg" height="512px" viewBox="0 -26 512 512" width="512px"><g><path d="m452 330c0 5.519531 4.480469 10 10 10s10-4.480469 10-10-4.480469-10-10-10-10 4.480469-10 10zm0 0" data-original="#000000" class="active-path" data-old_color="#000000" fill="#F5A623"/><path d="m170 320c-5.519531 0-10 4.480469-10 10s4.480469 10 10 10 10-4.480469 10-10-4.480469-10-10-10zm0 0" data-original="#000000" class="active-path" data-old_color="#000000" fill="#F5A623"/><path d="m455.605469 25.777344c-.023438-.132813-.050781-.265625-.078125-.398438-3.164063-14.703125-16.371094-25.378906-31.40625-25.378906-17.710938 0-32.121094 14.410156-32.121094 32.121094 0 5.519531 4.476562 10 10 10s10-4.480469 10-10c0-6.683594 5.4375-12.121094 12.121094-12.121094 5.617187 0 10.558594 3.949219 11.8125 9.414062l41.636718 240.730469c-19.71875-18.671875-46.332031-30.144531-75.570312-30.144531h-292c-29.238281 0-55.851562 11.472656-75.570312 30.144531l41.632812-240.730469c1.257812-5.464843 6.199219-9.414062 11.816406-9.414062 6.683594 0 12.121094 5.4375 12.121094 12.121094 0 5.519531 4.476562 10 10 10s10-4.480469 10-10c0-17.710938-14.410156-32.121094-32.121094-32.121094-15.035156 0-28.242187 10.675781-31.40625 25.378906-.027344.132813-.054687.265625-.074218.398438l-49.402344 285.628906c-4.519532 12.015625-6.996094 25.019531-6.996094 38.59375 0 60.652344 49.347656 110 110 110s110-49.347656 110-110c0-5.550781-.417969-11.105469-1.246094-16.582031 9.039063-7.832031 24.152344-13.417969 37.246094-13.417969s28.207031 5.585938 37.246094 13.417969c-.828125 5.476562-1.246094 11.03125-1.246094 16.582031 0 60.652344 49.347656 110 110 110s110-49.347656 110-110c0-13.574219-2.476562-26.578125-6.996094-38.59375zm-345.605469 414.222656c-49.625 0-90-40.375-90-90s40.375-90 90-90c48.835938 0 90 39.605469 90 90 0 49.625-40.375 90-90 90zm103.4375-127.429688c-7.808594-21.550781-22.113281-39.785156-40.351562-52.582031h165.828124c-18.238281 12.796875-32.542968 31.03125-40.351562 52.582031-12.214844-7.726562-27.9375-12.570312-42.5625-12.570312s-30.347656 4.84375-42.5625 12.570312zm188.5625 127.429688c-49.625 0-90-40.375-90-90 0-50.414062 41.1875-90 90-90 49.625 0 90 40.375 90 90s-40.375 90-90 90zm0 0" data-original="#000000" class="active-path" data-old_color="#000000" fill="#F5A623"/><path d="m461.9375 360.425781c-5.210938-1.828125-10.917969.90625-12.75 6.117188-7.039062 20.011719-26 33.457031-47.1875 33.457031-5.523438 0-10 4.476562-10 10s4.476562 10 10 10c29.660156 0 56.207031-18.816406 66.054688-46.820312 1.832031-5.210938-.90625-10.921876-6.117188-12.753907zm0 0" data-original="#000000" class="active-path" data-old_color="#000000" fill="#F5A623"/><path d="m169.9375 360.425781c-5.210938-1.828125-10.917969.90625-12.75 6.117188-7.039062 20.011719-26 33.457031-47.1875 33.457031-5.523438 0-10 4.476562-10 10s4.476562 10 10 10c29.660156 0 56.207031-18.816406 66.054688-46.820312 1.832031-5.210938-.90625-10.921876-6.117188-12.753907zm0 0" data-original="#000000" class="active-path" data-old_color="#000000" fill="#F5A623"/></g> </svg>
