<?xml version="1.0"?>
<svg xmlns="http://www.w3.org/2000/svg" height="512px" viewBox="0 -76 511.99948 511" width="512px"><g><path d="m356.605469 191.753906c-5.203125 1.859375-7.914063 7.582032-6.054688 12.78125 1.460938 4.089844 5.308594 6.640625 9.417969 6.640625 1.113281 0 2.25-.1875 3.363281-.585937l.003907-.003906c5.203124-1.855469 7.910156-7.578126 6.050781-12.777344-1.855469-5.203125-7.585938-7.910156-12.78125-6.054688zm0 0" data-original="#000000" class="active-path" data-old_color="#000000" fill="#F5A623"/><path d="m502.296875 172.183594c-4.964844-8.601563-11.746094-15.746094-20.089844-21.351563l-53.554687-110.570312c-7.234375-14.933594-18.351563-25.882813-33.042969-32.539063-10.898437-4.9375-23.523437-7.277344-38.542969-7.222656l-54.367187.273438c-7.988281.039062-15.488281 3.1875-21.109375 8.867187-5.625 5.679687-8.699219 13.210937-8.660156 21.199219.082031 16.449218 13.488281 29.773437 29.917968 29.773437h.152344l54.363281-.273437c6.203125-.042969 10.714844.597656 13.53125 1.875.945313.429687 2.363281 1.332031 3.757813 4.207031l34.347656 70.914063c-26.824219 3.074218-55.40625 12.625-80.539062 27.136718-29.039063 16.761719-48.125 39.835938-55.203126 66.726563-1.1875 4.515625-2.015624 9.113281-2.496093 13.765625-5.054688-2.425782-10.261719-3.746094-14.761719-3.746094s-9.707031 1.320312-14.761719 3.746094c-.480469-4.652344-1.308593-9.25-2.496093-13.765625-7.078126-26.890625-26.164063-49.964844-55.203126-66.726563-24.832031-14.339844-53.425781-24.019531-80.558593-27.097656l34.367187-70.953125c1.394532-2.875 2.8125-3.777344 3.757813-4.207031 2.816406-1.277344 7.375-1.921875 13.53125-1.875l54.367187.273437h.152344c16.425781-.003906 29.832031-13.328125 29.914062-29.773437.082032-16.496094-13.273437-29.984375-29.769531-30.066406l-54.367187-.273438c-15.058594-.042969-27.648438 2.289062-38.542969 7.222656-14.691406 6.65625-25.808594 17.605469-33.042969 32.542969-2.40625 4.96875-.332031 10.949219 4.640625 13.359375 4.972657 2.40625 10.953125.328125 13.359375-4.640625 5.214844-10.765625 12.832032-18.304687 23.296875-23.042969 8.214844-3.722656 18.09375-5.496094 30.1875-5.4375l54.367188.269532c5.46875.027343 9.898437 4.5 9.871093 9.96875-.027343 5.453124-4.472656 9.871093-9.917968 9.871093-.015625 0-.03125 0-.050782 0l-54.367187-.273437c-9.320313-.054688-16.269531 1.113281-21.882813 3.65625-5.835937 2.644531-10.382812 7.253906-13.503906 13.707031l-38.105468 78.671875c-8.210938.207031-16.128907 1.136719-23.597657 2.835938l4.46875-9.230469c2.410157-4.96875.332031-10.949219-4.640625-13.359375-4.972656-2.40625-10.953125-.328125-13.359375 4.644531l-14.308593 29.542969c-8.132813 5.441406-14.980469 12.507812-20.101563 21.375-13.707031 23.742187-12.859375 57.25 2.328125 91.9375 14.550781 33.242187 39.539062 61.917968 68.554688 78.667968 26.597656 15.355469 58.476562 22.886719 88.476562 13.542969 24.699219-7.695312 44.820312-25.886719 57.628906-48.066406 5.351563-9.273437 9.296875-18.898437 11.804688-28.621094 1.925781-5.5625 1.621094-9.425781 6.484375-13.402343 2.871093-2.347657 7.175781-5.023438 11.019531-5.023438 3.753906 0 8.242188 2.753906 11.019531 5.023438 4.917969 4.019531 4.515625 7.714843 6.484375 13.398437 2.503906 9.722656 6.453125 19.351563 11.804688 28.625 12.808594 22.179687 32.929687 40.371094 57.628906 48.066406 29.996094 9.34375 61.878906 1.8125 88.472656-13.542969 29.019532-16.75 54.007813-45.425781 68.558594-78.667968 15.1875-34.6875 16.035156-68.199219 2.328125-91.9375zm-475.273437 10c3.847656-6.660156 9.207031-11.933594 15.710937-15.945313 18.507813-11.039062 41.390625-11.523437 62.179687-8.550781 24.074219 3.4375 47.59375 11.960938 68.625 24.105469 22.792969 13.160156 38.152344 30.539062 44.671876 50.46875-23.484376-25.039063-62.914063-45.105469-97.660157-49.492188-39.003906-4.925781-65.707031 10.433594-73.261719 42.140625-4.9375 20.722656-4.113281 43.207032 2.082032 63.359375-7.554688-9.914062-14.046875-20.804687-19.019532-32.167969-12.605468-28.800781-13.820312-55.742187-3.328124-73.917968zm133.6875 155.753906c-11.671876 3.183594-24.136719 3.375-36.96875.65625-52.640626-18.308594-66.476563-69.273438-56.996094-109.050781 6.386718-26.804688 31.421875-29.441407 51.296875-26.929688 47.167969 5.953125 100.3125 44.363281 100.996093 72.644531-2.070312 7.71875-5.292968 15.425782-9.667968 23.003907-11.839844 20.503906-28.664063 34.222656-48.660156 39.675781zm218.4375-293.941406c-5.613282-2.542969-12.613282-3.714844-21.886719-3.660156l-54.363281.273437c-.019532 0-.035157 0-.050782 0-2.632812 0-5.105468-1.015625-6.980468-2.867187-1.878907-1.867188-2.925782-4.351563-2.9375-7-.015626-2.648438 1.007812-5.144532 2.871093-7.027344 1.863281-1.882813 4.347657-2.925782 7-2.941406l54.363281-.273438c12.148438-.070312 21.976563 1.71875 30.191407 5.441406 10.460937 4.738282 18.082031 12.273438 23.296875 23.039063l43.671875 90.164062c-7.3125-1.675781-15.199219-2.632812-23.601563-2.84375l-38.070312-78.597656c-3.125-6.453125-7.667969-11.066406-13.503906-13.707031zm102.5 212.105468c-4.972657 11.363282-11.464844 22.253907-19.019532 32.167969 6.195313-20.15625 7.019532-42.640625 2.082032-63.363281-6.613282-27.757812-27.765626-43.011719-59.59375-43.011719-.207032 0-.417969 0-.628907 0-5.519531.035157-9.96875 4.539063-9.9375 10.0625.035157 5.503907 4.507813 9.941407 10 9.941407.183594 0 .378907-.003907.570313-.003907 22.257812 0 35.761718 9.300781 40.132812 27.648438 9.476563 39.777343-4.355468 90.742187-56.996094 109.050781-12.835937 2.71875-25.296874 2.527344-36.96875-.65625-19.996093-5.453125-36.820312-19.171875-48.660156-39.675781-4.375-7.578125-7.601562-15.285157-9.667968-23.003907.339843-13.207031 12.539062-29.730468 32.882812-44.441406 4.476562-3.238281 5.480469-9.488281 2.246094-13.964844-3.234375-4.476562-9.488282-5.480468-13.964844-2.246093-7.816406 5.652343-14.632812 11.601562-20.351562 17.695312 6.511718-19.941406 21.878906-37.339843 44.683593-50.507812 27.335938-15.78125 58.964844-25.085938 86.78125-25.523438 16.566407-.265625 46.363281 2.753907 59.734375 25.914063 10.496094 18.175781 9.285156 45.117187-3.324218 73.917968zm0 0" data-original="#000000" class="active-path" data-old_color="#000000" fill="#F5A623"/><path d="m68.789062 94.316406c1.285157.550782 2.621094.8125 3.9375.8125 3.878907 0 7.570313-2.269531 9.195313-6.0625l.003906-.007812c2.171875-5.078125-.179687-10.953125-5.257812-13.128906-5.074219-2.175782-10.957031.179687-13.128907 5.257812-2.175781 5.074219.175782 10.953125 5.25 13.128906zm0 0" data-original="#000000" class="active-path" data-old_color="#000000" fill="#F5A623"/></g> </svg>
