<?xml version="1.0"?>
<svg xmlns="http://www.w3.org/2000/svg" id="_x33_0_Cannon" enable-background="new 0 0 64 64" height="512px" viewBox="0 0 64 64" width="512px"><g><path d="m17.997 37.993c-.257 0-.514.098-.71.294-.392.392-.392 1.027 0 1.419.196.196.453.294.71.294s.514-.098.71-.294c.392-.392.392-1.027 0-1.419-.197-.196-.454-.294-.71-.294z" data-original="#000000" class="active-path" data-old_color="#000000" fill="#F5A623"/><path d="m24.287 45.294c-.392.392-.392 1.027 0 1.419.196.196.453.294.71.294s.514-.098.71-.294c.392-.392.392-1.027 0-1.419-.197-.196-.454-.294-.71-.294-.257 0-.514.098-.71.294z" data-original="#000000" class="active-path" data-old_color="#000000" fill="#F5A623"/><path d="m51 1c-6.617 0-12 5.383-12 12 0 1.707.469 3.452 1.382 5.203l-.184.184c-.571-.217-1.301-.387-2.198-.387-2.138 0-4.147.832-5.657 2.343l-4.998 4.999c-1.512 1.511-2.345 3.52-2.345 5.658 0 .897.17 1.628.387 2.199l-1.664 1.664c-1.401-.934-2.886-1.664-4.408-2.184 1.521-3.146.908-6.963-1.622-9.398-3.259-3.137-8.378-3.125-11.414.026-1.492 1.549-2.321 3.583-2.337 5.726-.014 1.904.623 3.681 1.804 5.089-.502.36-.988.745-1.434 1.187-1.989 1.971-3.181 5.45-3.189 9.307-.011 5.024 1.873 9.797 5.169 13.093 3.061 3.062 7.324 4.888 12.004 5.143.364.021.725.03 1.083.03 3.877 0 7.311-1.155 9.328-3.173.449-.449.839-.938 1.204-1.445 1.206.978 2.628 1.551 4.089 1.734v.002c.006 0 .012-.001.019-.001.33.041.661.068.993.068 2.067 0 4.132-.788 5.697-2.362 1.512-1.521 2.346-3.548 2.349-5.71.002-2.168-.833-4.193-2.353-5.704-2.195-2.182-5.993-3.32-9.375-1.63-.524-1.513-1.256-2.992-2.19-4.387l1.661-1.661c.571.217 1.302.387 2.199.387 2.137 0 4.146-.832 5.657-2.344l4.998-4.998c1.512-1.511 2.345-3.52 2.345-5.658 0-.897-.17-1.627-.387-2.199l.184-.184c1.751.914 3.496 1.383 5.203 1.383 6.617 0 12-5.383 12-12s-5.383-12-12-12zm-4.293 7.707c1.147-1.147 2.671-1.778 4.293-1.778s3.146.631 4.293 1.778 1.778 2.671 1.778 4.293-.631 3.146-1.778 4.293c-1.444 1.445-3.379 1.909-5.371 1.374.046-.21.078-.43.078-.667 0-1.269-.738-2.153-1.292-2.707-.555-.555-1.439-1.293-2.708-1.293-.237 0-.456.032-.667.078-.534-1.991-.071-3.926 1.374-5.371zm-1.999 8c.495-.496.881-.707 1.292-.707s.797.211 1.293.708c.496.495.707.881.707 1.292s-.211.797-.707 1.293l-6 6c-.398.398-.733.629-1.057.707h-.236c0 .012-.003.024-.003.036-.397-.002-.795-.249-1.289-.743-.497-.496-.708-.882-.708-1.293s.211-.797.707-1.293zm-9.876 15.289c-.249-.746-.731-1.31-1.124-1.703-.394-.394-.958-.876-1.704-1.125l4.165-4.164c.249.746.731 1.31 1.124 1.703.394.394.958.876 1.704 1.125zm-7.832-.996c0-1.604.625-3.11 1.759-4.244l4.999-4.999c1.132-1.133 2.638-1.757 4.242-1.757.198 0 .381.013.553.033l-1.26 1.26c-.259.259-.557.594-.802 1.003-.487.199-.936.493-1.319.876l-5 5c-.383.383-.677.832-.876 1.319-.409.245-.744.543-1.003.802l-1.26 1.26c-.02-.172-.033-.355-.033-.553zm-15.046-8.057c1.628.012 3.174.643 4.353 1.777 1.99 1.916 2.383 4.97 1.027 7.405-.542-.12-1.084-.213-1.626-.28.19-.59.292-1.209.292-1.845 0-3.309-2.691-6-6-6-.619 0-1.216.094-1.779.269 1.03-.849 2.297-1.32 3.733-1.326zm-5.947 6.986c.039-2.172 1.812-3.929 3.993-3.929 2.206 0 4 1.794 4 4 0 .599-.139 1.174-.389 1.702-.3.001-.596.028-.893.046l-.748-2.991-1.94.485.687 2.748c-1.126.224-2.202.593-3.214 1.085-.816-.866-1.331-1.953-1.496-3.146zm1.7 26.364c-2.922-2.923-4.593-7.178-4.583-11.674 0-.093.009-.182.011-.275 2.525-1.919 8.013-1.949 10.623-.085-.431 1.29-.424 3.281.022 4.547l-1.486 1.486c-.785.785-1.801.785-2.586 0s-.785-1.801 0-2.586l-1.414-1.414c-1.569 1.568-1.569 3.846 0 5.414.784.784 1.746 1.177 2.707 1.177.043 0 .086-.012.13-.013-.037 1.004.344 2.017 1.163 2.837.784.784 1.746 1.177 2.707 1.177s1.923-.393 2.707-1.177l-1.414-1.414c-.785.785-1.801.785-2.586 0s-.785-1.801 0-2.586l1.486-1.486c.644.227 1.475.341 2.307.341.809 0 1.616-.108 2.252-.323.97 1.274 1.674 3.25 1.882 5.359.211 2.142-.136 4.018-.931 5.189-4.267.343-9.395-.893-12.997-4.494zm11.596-8.011c-.541.384-3.091.382-3.58.028-.389-.524-.389-3.097-.016-3.604.113-.113.282-.174.494-.174.51 0 1.269.352 2.092 1.174.631.631 1.037 1.28 1.143 1.829.037.19.067.535-.133.747zm12.74 5.009 2.715.679.485-1.939-2.959-.74c.018-.304.042-.606.043-.913.52-.242 1.085-.378 1.673-.378 2.206 0 4 1.794 4 4 0 2.156-1.718 3.907-3.854 3.985-1.152-.165-2.258-.661-3.183-1.485.491-1.01.857-2.084 1.08-3.209zm7.252-5.582c1.138 1.132 1.764 2.653 1.763 4.284-.002 1.412-.475 2.747-1.34 3.823.182-.573.282-1.183.282-1.816 0-3.309-2.691-6-6-6-.627 0-1.238.101-1.821.286-.07-.552-.167-1.103-.292-1.655 2.618-1.522 5.669-.651 7.408 1.078zm-12.002 10.584c-.958.958-2.435 1.678-4.181 2.108.51-1.401.698-3.114.512-4.999-.253-2.569-1.132-4.938-2.393-6.517.216-.517.29-1.107.169-1.73-.184-.95-.77-1.939-1.692-2.862-1.761-1.761-3.441-2.034-4.611-1.526-2.879-2.196-8.209-2.48-11.734-.859.378-2.18 1.198-4.029 2.359-5.18 2.069-2.051 4.917-3.046 7.955-3.046 3.992 0 8.312 1.721 11.617 5.025 5.849 5.851 6.765 14.819 1.999 19.586zm-.586-21c-.436-.436-.89-.844-1.356-1.23l4.357-4.356c.398-.398.733-.629 1.057-.707h.235c0-.012.003-.024.003-.036.397.002.795.249 1.289.743.497.496.708.882.708 1.293s-.211.798-.707 1.293l-4.355 4.355c-.387-.465-.795-.919-1.231-1.355zm17.293-11.293c0 1.604-.625 3.11-1.759 4.244l-4.999 4.999c-1.133 1.133-2.64 1.757-4.242 1.757-.198 0-.381-.013-.553-.033l1.26-1.26c.259-.259.557-.594.802-1.003.487-.199.936-.493 1.319-.876l5-5c.383-.383.677-.832.876-1.319.409-.245.744-.543 1.003-.802l1.26-1.26c.02.172.033.355.033.553zm7-3c-1.201 0-2.443-.299-3.709-.876l1.416-1.416c.075-.075.154-.158.234-.246.85.278 1.704.43 2.54.43 1.941 0 3.782-.741 5.226-2.185 3.147-3.147 3.147-8.267 0-11.414-3.146-3.147-8.268-3.147-11.414 0-2.066 2.066-2.681 4.944-1.758 7.769-.086.079-.168.157-.242.231l-1.416 1.416c-.578-1.266-.877-2.508-.877-3.709 0-5.514 4.486-10 10-10s10 4.486 10 10-4.486 10-10 10z" data-original="#000000" class="active-path" data-old_color="#000000" fill="#F5A623"/></g> </svg>
